<svg xmlns="http://www.w3.org/2000/svg" viewBox="0 0 287.1 75"><path d="M170.6 63.5c-5.6 0-9.2-4.6-9.2-10.1s3.7-10.1 9.2-10.1c5.7 0 9.4 4.6 9.4 10.1s-3.6 10.1-9.4 10.1zm9.4-25.9v4.3c-2-3.2-6.1-5.1-9.8-5.1-9.7 0-16.3 7.7-16.3 16.7s6.6 16.7 16.3 16.7c3.7 0 7.8-1.9 9.8-5.1v4.3h7.4V37.6H180zm36.6-15.5c-.8-.4-2.4-.8-4.3-.8-3.7 0-11.4.3-11.4 12.4v3.9h-6.5v6.2h6.5v25.5h7.4V43.8h8.3v-6.2h-8.3v-4.8c0-5 2.7-5 5-5 1.2 0 2.2.2 3.3.5v-6.2zm19.7 20.2c4.5 0 7.7 3 7.7 7.8h-15.8c.1-5.1 3.6-7.8 8.1-7.8zm14.9 8.7c0-8.1-6.5-14.3-14.7-14.3-10 0-15.6 7.1-15.6 16.7 0 9.3 5.2 16.7 15.8 16.7 8.1 0 13.3-4.9 14.2-10.3h-7.5c-.9 2.2-2.5 4.1-6.7 4.1-5.9 0-8-3.4-8.4-7.6h22.4c.5-1.7.5-4.2.5-5.3zm21-8.7c4.5 0 7.7 3 7.7 7.8h-15.8c0-5.1 3.5-7.8 8.1-7.8zm14.9 8.7c0-8.1-6.5-14.3-14.7-14.3-10 0-15.6 7.1-15.6 16.7 0 9.3 5.2 16.7 15.8 16.7 8.1 0 13.3-4.9 14.2-10.3h-7.5c-.9 2.2-2.5 4.1-6.7 4.1-5.9 0-8-3.4-8.4-7.6h22.4c.4-1.7.5-4.2.5-5.3zM0 0v4.7c0 20.7 16.8 37.5 37.5 37.5h27.7C63 55.5 51.4 65.6 37.5 65.6h-2.3c-1.3 0-2.3 1-2.3 2.3v4.7c0 1.3 1.1 2.3 2.3 2.3h2.3C58.2 75 75 58.2 75 37.5S58.2 0 37.5 0H0zm103.2 69.2h7.4v-48h-7.4v48zm30.5-26.9c4.5 0 7.7 3 7.7 7.8h-15.8c0-5.1 3.5-7.8 8.1-7.8zm14.9 8.7c0-8.1-6.5-14.3-14.7-14.3-10 0-15.6 7.1-15.6 16.7 0 9.3 5.2 16.7 15.8 16.7 8.1 0 13.3-4.9 14.2-10.3h-7.5c-.9 2.2-2.5 4.1-6.7 4.1-5.9 0-8-3.4-8.4-7.6h22.4c.4-1.7.5-4.2.5-5.3z" fill="#18bd8e"/></svg>